<svg width="24" height="24" viewBox="0 0 24 24" fill="none" xmlns="http://www.w3.org/2000/svg">
<path fill-rule="evenodd" clip-rule="evenodd" d="M20.6438 5.07621C21.1187 4.60125 21.1187 3.83118 20.6438 3.35622C20.1688 2.88126 19.3988 2.88126 18.9238 3.35622L12 10.28L5.07621 3.35622C4.60125 2.88126 3.83118 2.88126 3.35622 3.35622C2.88126 3.83118 2.88126 4.60125 3.35622 5.07621L10.28 12L3.35622 18.9238C2.88126 19.3988 2.88126 20.1688 3.35622 20.6438C3.83118 21.1187 4.60125 21.1187 5.07621 20.6438L12 13.72L18.9238 20.6438C19.3988 21.1187 20.1688 21.1187 20.6438 20.6438C21.1187 20.1688 21.1187 19.3988 20.6438 18.9238L13.72 12L20.6438 5.07621Z" fill="#231F10"/>
</svg>
