<svg width="24" height="24" viewBox="0 0 24 24" fill="none" xmlns="http://www.w3.org/2000/svg">
<path d="M9.01738 5.87336C9.01738 6.37737 9.01738 8.62697 9.01738 8.62697H7V11.9941H9.01738V22H13.1615V11.9944H15.9424C15.9424 11.9944 16.2028 10.3799 16.3291 8.61456C15.9671 8.61456 13.1772 8.61456 13.1772 8.61456C13.1772 8.61456 13.1772 6.65567 13.1772 6.31232C13.1772 5.96822 13.629 5.50537 14.0756 5.50537C14.5213 5.50537 15.4621 5.50537 16.3335 5.50537C16.3335 5.04693 16.3335 3.46292 16.3335 2C15.1702 2 13.8469 2 13.2635 2C8.91494 1.99977 9.01738 5.37024 9.01738 5.87336Z" fill="#E4C291"/>
</svg>
