<svg width="24" height="24" viewBox="0 0 24 24" fill="none" xmlns="http://www.w3.org/2000/svg">
<g clip-path="url(#clip0)">
<path d="M0.829029 14.044H2.78392V21.8635C2.78392 22.3243 3.16093 22.7013 3.62172 22.7013H9.34673C9.80752 22.7013 10.1845 22.3243 10.1845 21.8635V16.1385H13.6754V21.8635C13.6754 22.3243 14.0524 22.7013 14.5132 22.7013H19.9589C20.4197 22.7013 20.7967 22.3243 20.7967 21.8635V14.044H23.1705C23.5056 14.044 23.8128 13.8346 23.9384 13.5274C24.0641 13.2202 23.9943 12.8571 23.7569 12.6197L12.8376 1.5468C12.5164 1.22562 11.9858 1.21167 11.6646 1.53285L0.256563 12.6058C0.00522181 12.8432 -0.0646115 13.2062 0.0610589 13.5274C0.186729 13.8485 0.493907 14.044 0.829029 14.044ZM12.2231 3.32013L21.1597 12.3684H19.9588C19.498 12.3684 19.121 12.7454 19.121 13.2062V21.0257H15.3509V15.3007C15.3509 14.8399 14.9739 14.4629 14.5131 14.4629H9.34673C8.88593 14.4629 8.50892 14.8399 8.50892 15.3007V21.0257H4.45952V13.2062C4.45952 12.7454 4.08251 12.3684 3.62172 12.3684H2.89564L12.2231 3.32013Z" fill="#231F10"/>
</g>
<defs>
<clipPath id="clip0">
<rect width="24" height="24" fill="white"/>
</clipPath>
</defs>
</svg>
