<svg width="24" height="24" viewBox="0 0 24 24" fill="none" xmlns="http://www.w3.org/2000/svg">
<path fill-rule="evenodd" clip-rule="evenodd" d="M15.75 2H8.25C4.79875 2 2 4.79875 2 8.25V15.75C2 19.2013 4.79875 22 8.25 22H15.75C19.2013 22 22 19.2013 22 15.75V8.25C22 4.79875 19.2013 2 15.75 2ZM12 7C9.23875 7 7 9.23875 7 12C7 14.7613 9.23875 17 12 17C14.7613 17 17 14.7613 17 12C17 9.23875 14.7613 7 12 7ZM12 15.125C10.2775 15.125 8.875 13.7225 8.875 12C8.875 10.2762 10.2775 8.875 12 8.875C13.7225 8.875 15.125 10.2762 15.125 12C15.125 13.7225 13.7225 15.125 12 15.125ZM18.0414 6.62505C18.0414 6.993 17.7431 7.29129 17.3751 7.29129C17.0072 7.29129 16.7089 6.993 16.7089 6.62505C16.7089 6.25709 17.0072 5.9588 17.3751 5.9588C17.7431 5.9588 18.0414 6.25709 18.0414 6.62505Z" fill="black"/>
</svg>
