<svg width="24" height="24" viewBox="0 0 24 24" fill="none" xmlns="http://www.w3.org/2000/svg">
<path fill-rule="evenodd" clip-rule="evenodd" d="M4 6.25C4 5.55964 4.55964 5 5.25 5H18.75C19.4404 5 20 5.55964 20 6.25C20 6.94036 19.4404 7.5 18.75 7.5H5.25C4.55964 7.5 4 6.94036 4 6.25Z" fill="white"/>
<path fill-rule="evenodd" clip-rule="evenodd" d="M4 12.25C4 11.5596 4.55964 11 5.25 11H18.75C19.4404 11 20 11.5596 20 12.25C20 12.9404 19.4404 13.5 18.75 13.5H5.25C4.55964 13.5 4 12.9404 4 12.25Z" fill="white"/>
<path fill-rule="evenodd" clip-rule="evenodd" d="M4 18.25C4 17.5596 4.55964 17 5.25 17H18.75C19.4404 17 20 17.5596 20 18.25C20 18.9404 19.4404 19.5 18.75 19.5H5.25C4.55964 19.5 4 18.9404 4 18.25Z" fill="white"/>
</svg>
